<mxfile host="app.diagrams.net" modified="2023-06-15T14:16:44.881Z" agent="Mozilla/5.0 (X11; Ubuntu; Linux x86_64; rv:109.0) Gecko/20100101 Firefox/114.0" etag="BsFW4w8JVTuYrFEWedND" version="21.1.8" type="github">
  <diagram name="Страница 1" id="YJLMXGC9RKxdqZWy0-nV">
    <mxGraphModel dx="1382" dy="766" grid="1" gridSize="10" guides="1" tooltips="1" connect="1" arrows="1" fold="1" page="1" pageScale="1" pageWidth="827" pageHeight="1169" math="0" shadow="0">
      <root>
        <mxCell id="0" />
        <mxCell id="1" parent="0" />
        <mxCell id="nV9obIRWw4WcJ2N8NDT8-4" style="edgeStyle=orthogonalEdgeStyle;rounded=0;orthogonalLoop=1;jettySize=auto;html=1;exitX=1;exitY=0.5;exitDx=0;exitDy=0;entryX=0;entryY=0.5;entryDx=0;entryDy=0;" parent="1" source="nV9obIRWw4WcJ2N8NDT8-1" target="nV9obIRWw4WcJ2N8NDT8-2" edge="1">
          <mxGeometry relative="1" as="geometry" />
        </mxCell>
        <mxCell id="nV9obIRWw4WcJ2N8NDT8-1" value="dictionary - справочник" style="rounded=1;whiteSpace=wrap;html=1;" parent="1" vertex="1">
          <mxGeometry x="80" y="40" width="120" height="60" as="geometry" />
        </mxCell>
        <mxCell id="nV9obIRWw4WcJ2N8NDT8-2" value="&lt;div&gt;dictionaryAttribute - атрибут справочника&lt;/div&gt;" style="rounded=1;whiteSpace=wrap;html=1;" parent="1" vertex="1">
          <mxGeometry x="320" y="40" width="120" height="60" as="geometry" />
        </mxCell>
        <mxCell id="nV9obIRWw4WcJ2N8NDT8-11" style="edgeStyle=orthogonalEdgeStyle;rounded=0;orthogonalLoop=1;jettySize=auto;html=1;entryX=0.5;entryY=1;entryDx=0;entryDy=0;" parent="1" source="nV9obIRWw4WcJ2N8NDT8-3" target="nV9obIRWw4WcJ2N8NDT8-1" edge="1">
          <mxGeometry relative="1" as="geometry" />
        </mxCell>
        <mxCell id="nV9obIRWw4WcJ2N8NDT8-14" style="edgeStyle=orthogonalEdgeStyle;rounded=0;orthogonalLoop=1;jettySize=auto;html=1;exitX=1;exitY=0;exitDx=0;exitDy=0;entryX=0;entryY=1;entryDx=0;entryDy=0;" parent="1" source="nV9obIRWw4WcJ2N8NDT8-3" target="nV9obIRWw4WcJ2N8NDT8-2" edge="1">
          <mxGeometry relative="1" as="geometry" />
        </mxCell>
        <mxCell id="YNOQAabGNsyVpoVTz2kf-4" style="edgeStyle=orthogonalEdgeStyle;rounded=0;orthogonalLoop=1;jettySize=auto;html=1;exitX=0.5;exitY=1;exitDx=0;exitDy=0;entryX=0.5;entryY=0;entryDx=0;entryDy=0;" parent="1" source="nV9obIRWw4WcJ2N8NDT8-3" target="nV9obIRWw4WcJ2N8NDT8-29" edge="1">
          <mxGeometry relative="1" as="geometry" />
        </mxCell>
        <mxCell id="nV9obIRWw4WcJ2N8NDT8-3" value="&lt;div&gt;characteristic - характеристика&lt;/div&gt;" style="rounded=1;whiteSpace=wrap;html=1;" parent="1" vertex="1">
          <mxGeometry x="80" y="160" width="120" height="60" as="geometry" />
        </mxCell>
        <mxCell id="nV9obIRWw4WcJ2N8NDT8-5" value="1" style="text;html=1;align=center;verticalAlign=middle;resizable=0;points=[];autosize=1;strokeColor=none;fillColor=none;" parent="1" vertex="1">
          <mxGeometry x="206" y="38" width="30" height="30" as="geometry" />
        </mxCell>
        <mxCell id="nV9obIRWw4WcJ2N8NDT8-6" value="N" style="text;html=1;align=center;verticalAlign=middle;resizable=0;points=[];autosize=1;strokeColor=none;fillColor=none;" parent="1" vertex="1">
          <mxGeometry x="280" y="38" width="30" height="30" as="geometry" />
        </mxCell>
        <mxCell id="T3WXX5QbxzU04eu_fvuh-2" style="edgeStyle=orthogonalEdgeStyle;rounded=0;orthogonalLoop=1;jettySize=auto;html=1;exitX=0.75;exitY=1;exitDx=0;exitDy=0;entryX=0.293;entryY=-0.033;entryDx=0;entryDy=0;entryPerimeter=0;" parent="1" source="nV9obIRWw4WcJ2N8NDT8-7" target="T3WXX5QbxzU04eu_fvuh-1" edge="1">
          <mxGeometry relative="1" as="geometry">
            <mxPoint x="490" y="400" as="targetPoint" />
          </mxGeometry>
        </mxCell>
        <mxCell id="T3WXX5QbxzU04eu_fvuh-24" style="edgeStyle=orthogonalEdgeStyle;rounded=0;orthogonalLoop=1;jettySize=auto;html=1;entryX=1;entryY=0;entryDx=0;entryDy=0;" parent="1" source="nV9obIRWw4WcJ2N8NDT8-7" target="T3WXX5QbxzU04eu_fvuh-21" edge="1">
          <mxGeometry relative="1" as="geometry">
            <Array as="points">
              <mxPoint x="394" y="190" />
            </Array>
          </mxGeometry>
        </mxCell>
        <mxCell id="nV9obIRWw4WcJ2N8NDT8-7" value="characteristicValue - значение характеристики" style="rounded=1;whiteSpace=wrap;html=1;" parent="1" vertex="1">
          <mxGeometry x="400" y="160" width="120" height="60" as="geometry" />
        </mxCell>
        <mxCell id="lWliL8JiLnwm0pALyLZi-2" style="edgeStyle=orthogonalEdgeStyle;rounded=0;orthogonalLoop=1;jettySize=auto;html=1;entryX=0;entryY=0.25;entryDx=0;entryDy=0;exitX=0.133;exitY=1.067;exitDx=0;exitDy=0;exitPerimeter=0;" parent="1" source="nV9obIRWw4WcJ2N8NDT8-9" target="nV9obIRWw4WcJ2N8NDT8-7" edge="1">
          <mxGeometry relative="1" as="geometry" />
        </mxCell>
        <mxCell id="nV9obIRWw4WcJ2N8NDT8-9" value="1" style="text;html=1;align=center;verticalAlign=middle;resizable=0;points=[];autosize=1;strokeColor=none;fillColor=none;" parent="1" vertex="1">
          <mxGeometry x="200" y="160" width="30" height="30" as="geometry" />
        </mxCell>
        <mxCell id="nV9obIRWw4WcJ2N8NDT8-10" value="&lt;div&gt;N&lt;/div&gt;" style="text;html=1;align=center;verticalAlign=middle;resizable=0;points=[];autosize=1;strokeColor=none;fillColor=none;" parent="1" vertex="1">
          <mxGeometry x="370" y="150" width="30" height="30" as="geometry" />
        </mxCell>
        <mxCell id="nV9obIRWw4WcJ2N8NDT8-12" value="N" style="text;html=1;align=center;verticalAlign=middle;resizable=0;points=[];autosize=1;strokeColor=none;fillColor=none;" parent="1" vertex="1">
          <mxGeometry x="146" y="128" width="30" height="30" as="geometry" />
        </mxCell>
        <mxCell id="nV9obIRWw4WcJ2N8NDT8-13" value="1" style="text;html=1;align=center;verticalAlign=middle;resizable=0;points=[];autosize=1;strokeColor=none;fillColor=none;" parent="1" vertex="1">
          <mxGeometry x="146" y="98" width="30" height="30" as="geometry" />
        </mxCell>
        <mxCell id="nV9obIRWw4WcJ2N8NDT8-15" value="1" style="text;html=1;align=center;verticalAlign=middle;resizable=0;points=[];autosize=1;strokeColor=none;fillColor=none;" parent="1" vertex="1">
          <mxGeometry x="200" y="130" width="30" height="30" as="geometry" />
        </mxCell>
        <mxCell id="nV9obIRWw4WcJ2N8NDT8-16" value="N" style="text;html=1;align=center;verticalAlign=middle;resizable=0;points=[];autosize=1;strokeColor=none;fillColor=none;" parent="1" vertex="1">
          <mxGeometry x="290" y="100" width="30" height="30" as="geometry" />
        </mxCell>
        <mxCell id="nV9obIRWw4WcJ2N8NDT8-24" style="edgeStyle=orthogonalEdgeStyle;rounded=0;orthogonalLoop=1;jettySize=auto;html=1;entryX=1;entryY=0.9;entryDx=0;entryDy=0;entryPerimeter=0;" parent="1" source="nV9obIRWw4WcJ2N8NDT8-23" target="nV9obIRWw4WcJ2N8NDT8-16" edge="1">
          <mxGeometry relative="1" as="geometry">
            <Array as="points">
              <mxPoint x="619" y="127" />
            </Array>
          </mxGeometry>
        </mxCell>
        <mxCell id="nV9obIRWw4WcJ2N8NDT8-23" value="значение характеристики, которое берётся из справочника может быть ограничено каким-то подмножеством" style="rounded=0;whiteSpace=wrap;html=1;" parent="1" vertex="1">
          <mxGeometry x="520" y="40" width="197" height="70" as="geometry" />
        </mxCell>
        <mxCell id="5sVcobBxWho8-_Hs1tNs-8" style="edgeStyle=orthogonalEdgeStyle;rounded=0;orthogonalLoop=1;jettySize=auto;html=1;" parent="1" source="nV9obIRWw4WcJ2N8NDT8-29" target="5sVcobBxWho8-_Hs1tNs-7" edge="1">
          <mxGeometry relative="1" as="geometry">
            <Array as="points">
              <mxPoint x="10" y="285" />
              <mxPoint x="10" y="880" />
            </Array>
          </mxGeometry>
        </mxCell>
        <mxCell id="nV9obIRWw4WcJ2N8NDT8-29" value="&lt;div&gt;specificationCharacteristic - характеристики для спецификаций&lt;br&gt;&lt;/div&gt;" style="rounded=1;whiteSpace=wrap;html=1;" parent="1" vertex="1">
          <mxGeometry x="176" y="260" width="204" height="50" as="geometry" />
        </mxCell>
        <mxCell id="YNOQAabGNsyVpoVTz2kf-5" value="1" style="text;html=1;align=center;verticalAlign=middle;resizable=0;points=[];autosize=1;strokeColor=none;fillColor=none;" parent="1" vertex="1">
          <mxGeometry x="110" y="220" width="30" height="30" as="geometry" />
        </mxCell>
        <mxCell id="YNOQAabGNsyVpoVTz2kf-6" value="N" style="text;html=1;align=center;verticalAlign=middle;resizable=0;points=[];autosize=1;strokeColor=none;fillColor=none;" parent="1" vertex="1">
          <mxGeometry x="279" y="230" width="30" height="30" as="geometry" />
        </mxCell>
        <mxCell id="T3WXX5QbxzU04eu_fvuh-27" style="edgeStyle=orthogonalEdgeStyle;rounded=0;orthogonalLoop=1;jettySize=auto;html=1;exitX=0.5;exitY=1;exitDx=0;exitDy=0;entryX=0.5;entryY=0;entryDx=0;entryDy=0;" parent="1" source="YNOQAabGNsyVpoVTz2kf-11" target="T3WXX5QbxzU04eu_fvuh-26" edge="1">
          <mxGeometry relative="1" as="geometry" />
        </mxCell>
        <mxCell id="5sVcobBxWho8-_Hs1tNs-1" style="edgeStyle=orthogonalEdgeStyle;rounded=0;orthogonalLoop=1;jettySize=auto;html=1;entryX=0.5;entryY=1;entryDx=0;entryDy=0;" parent="1" source="YNOQAabGNsyVpoVTz2kf-11" target="nV9obIRWw4WcJ2N8NDT8-29" edge="1">
          <mxGeometry relative="1" as="geometry" />
        </mxCell>
        <mxCell id="YNOQAabGNsyVpoVTz2kf-11" value="&lt;div&gt;specification - спецификация&lt;br&gt;&lt;/div&gt;" style="rounded=1;whiteSpace=wrap;html=1;" parent="1" vertex="1">
          <mxGeometry x="154" y="490" width="146" height="60" as="geometry" />
        </mxCell>
        <mxCell id="YNOQAabGNsyVpoVTz2kf-20" style="edgeStyle=orthogonalEdgeStyle;rounded=0;orthogonalLoop=1;jettySize=auto;html=1;entryX=1;entryY=0.75;entryDx=0;entryDy=0;" parent="1" source="YNOQAabGNsyVpoVTz2kf-19" target="nV9obIRWw4WcJ2N8NDT8-29" edge="1">
          <mxGeometry relative="1" as="geometry" />
        </mxCell>
        <mxCell id="YNOQAabGNsyVpoVTz2kf-19" value="в будущем к этой сущности можно будет прикрутить какие-то связи между характеристиками (сначала должно быть заполнено одно, потом другое, если у первого атрибута такое-то значение, на другой накладываем такое-то)" style="rounded=0;whiteSpace=wrap;html=1;" parent="1" vertex="1">
          <mxGeometry x="530" y="260" width="197" height="120" as="geometry" />
        </mxCell>
        <mxCell id="T3WXX5QbxzU04eu_fvuh-5" style="edgeStyle=orthogonalEdgeStyle;rounded=0;orthogonalLoop=1;jettySize=auto;html=1;exitX=0;exitY=0.5;exitDx=0;exitDy=0;entryX=0.716;entryY=1.038;entryDx=0;entryDy=0;entryPerimeter=0;" parent="1" source="T3WXX5QbxzU04eu_fvuh-1" target="nV9obIRWw4WcJ2N8NDT8-29" edge="1">
          <mxGeometry relative="1" as="geometry" />
        </mxCell>
        <mxCell id="lWliL8JiLnwm0pALyLZi-1" style="edgeStyle=orthogonalEdgeStyle;rounded=0;orthogonalLoop=1;jettySize=auto;html=1;entryX=1.007;entryY=0.617;entryDx=0;entryDy=0;entryPerimeter=0;" parent="1" source="T3WXX5QbxzU04eu_fvuh-1" target="YNOQAabGNsyVpoVTz2kf-11" edge="1">
          <mxGeometry relative="1" as="geometry">
            <Array as="points">
              <mxPoint x="530" y="527" />
            </Array>
          </mxGeometry>
        </mxCell>
        <mxCell id="T3WXX5QbxzU04eu_fvuh-1" value="&lt;div&gt;specificationCharacteristicValue - значения характеристик для спецификации&lt;br&gt;&lt;/div&gt;" style="rounded=1;whiteSpace=wrap;html=1;" parent="1" vertex="1">
          <mxGeometry x="410" y="410" width="270" height="60" as="geometry" />
        </mxCell>
        <mxCell id="T3WXX5QbxzU04eu_fvuh-28" style="edgeStyle=orthogonalEdgeStyle;rounded=0;orthogonalLoop=1;jettySize=auto;html=1;entryX=0.5;entryY=1;entryDx=0;entryDy=0;" parent="1" source="T3WXX5QbxzU04eu_fvuh-9" target="T3WXX5QbxzU04eu_fvuh-26" edge="1">
          <mxGeometry relative="1" as="geometry">
            <Array as="points">
              <mxPoint x="150" y="800" />
              <mxPoint x="150" y="780" />
              <mxPoint x="83" y="780" />
            </Array>
          </mxGeometry>
        </mxCell>
        <mxCell id="yI7ebcBqDEaBk3-1Iv0P-3" style="edgeStyle=orthogonalEdgeStyle;rounded=0;orthogonalLoop=1;jettySize=auto;html=1;entryX=0.5;entryY=1;entryDx=0;entryDy=0;" parent="1" source="T3WXX5QbxzU04eu_fvuh-9" target="yI7ebcBqDEaBk3-1Iv0P-1" edge="1">
          <mxGeometry relative="1" as="geometry" />
        </mxCell>
        <mxCell id="T3WXX5QbxzU04eu_fvuh-9" value="&lt;div&gt;offer - оффер&lt;br&gt;&lt;/div&gt;" style="rounded=1;whiteSpace=wrap;html=1;" parent="1" vertex="1">
          <mxGeometry x="154" y="770" width="146" height="60" as="geometry" />
        </mxCell>
        <mxCell id="T3WXX5QbxzU04eu_fvuh-25" style="edgeStyle=orthogonalEdgeStyle;rounded=0;orthogonalLoop=1;jettySize=auto;html=1;" parent="1" source="T3WXX5QbxzU04eu_fvuh-21" target="T3WXX5QbxzU04eu_fvuh-9" edge="1">
          <mxGeometry relative="1" as="geometry" />
        </mxCell>
        <mxCell id="T3WXX5QbxzU04eu_fvuh-21" value="&lt;div&gt;offerCharacteristicValue - значения характеристик на оффере&lt;br&gt;&lt;/div&gt;" style="rounded=1;whiteSpace=wrap;html=1;" parent="1" vertex="1">
          <mxGeometry x="154" y="630" width="240" height="60" as="geometry" />
        </mxCell>
        <mxCell id="yI7ebcBqDEaBk3-1Iv0P-7" style="edgeStyle=orthogonalEdgeStyle;rounded=0;orthogonalLoop=1;jettySize=auto;html=1;exitX=0.25;exitY=1;exitDx=0;exitDy=0;entryX=0.5;entryY=0;entryDx=0;entryDy=0;" parent="1" source="T3WXX5QbxzU04eu_fvuh-26" target="5sVcobBxWho8-_Hs1tNs-7" edge="1">
          <mxGeometry relative="1" as="geometry" />
        </mxCell>
        <mxCell id="T3WXX5QbxzU04eu_fvuh-26" value="&lt;div&gt;offerSpecification - спецификации в оффере&lt;br&gt;&lt;/div&gt;" style="rounded=1;whiteSpace=wrap;html=1;" parent="1" vertex="1">
          <mxGeometry x="10" y="700" width="146" height="60" as="geometry" />
        </mxCell>
        <mxCell id="5sVcobBxWho8-_Hs1tNs-2" value="1" style="text;html=1;align=center;verticalAlign=middle;resizable=0;points=[];autosize=1;strokeColor=none;fillColor=none;" parent="1" vertex="1">
          <mxGeometry x="196" y="458" width="30" height="30" as="geometry" />
        </mxCell>
        <mxCell id="5sVcobBxWho8-_Hs1tNs-3" value="N" style="text;html=1;align=center;verticalAlign=middle;resizable=0;points=[];autosize=1;strokeColor=none;fillColor=none;" parent="1" vertex="1">
          <mxGeometry x="246" y="308" width="30" height="30" as="geometry" />
        </mxCell>
        <mxCell id="5sVcobBxWho8-_Hs1tNs-10" style="edgeStyle=orthogonalEdgeStyle;rounded=0;orthogonalLoop=1;jettySize=auto;html=1;exitX=1;exitY=0.5;exitDx=0;exitDy=0;entryX=0;entryY=0.5;entryDx=0;entryDy=0;" parent="1" source="5sVcobBxWho8-_Hs1tNs-7" target="5sVcobBxWho8-_Hs1tNs-9" edge="1">
          <mxGeometry relative="1" as="geometry" />
        </mxCell>
        <mxCell id="5sVcobBxWho8-_Hs1tNs-7" value="&lt;div&gt;offerSpecificationCharacteristic - характеристики спецификаций в оффере&lt;br&gt;&lt;/div&gt;" style="rounded=1;whiteSpace=wrap;html=1;" parent="1" vertex="1">
          <mxGeometry x="20" y="880" width="190" height="60" as="geometry" />
        </mxCell>
        <mxCell id="yI7ebcBqDEaBk3-1Iv0P-4" style="edgeStyle=orthogonalEdgeStyle;rounded=0;orthogonalLoop=1;jettySize=auto;html=1;entryX=0.837;entryY=1.05;entryDx=0;entryDy=0;entryPerimeter=0;" parent="1" source="5sVcobBxWho8-_Hs1tNs-9" target="T3WXX5QbxzU04eu_fvuh-1" edge="1">
          <mxGeometry relative="1" as="geometry" />
        </mxCell>
        <mxCell id="5sVcobBxWho8-_Hs1tNs-9" value="&lt;div&gt;offerSpecificationCharacteristicValue - характеристики спецификаций в оффере&lt;br&gt;&lt;/div&gt;" style="rounded=1;whiteSpace=wrap;html=1;" parent="1" vertex="1">
          <mxGeometry x="260" y="880" width="290" height="60" as="geometry" />
        </mxCell>
        <mxCell id="5sVcobBxWho8-_Hs1tNs-11" value="1" style="text;html=1;align=center;verticalAlign=middle;resizable=0;points=[];autosize=1;strokeColor=none;fillColor=none;" parent="1" vertex="1">
          <mxGeometry x="210" y="910" width="30" height="30" as="geometry" />
        </mxCell>
        <mxCell id="5sVcobBxWho8-_Hs1tNs-12" value="N" style="text;html=1;align=center;verticalAlign=middle;resizable=0;points=[];autosize=1;strokeColor=none;fillColor=none;" parent="1" vertex="1">
          <mxGeometry x="230" y="878" width="30" height="30" as="geometry" />
        </mxCell>
        <mxCell id="yI7ebcBqDEaBk3-1Iv0P-2" style="edgeStyle=orthogonalEdgeStyle;rounded=0;orthogonalLoop=1;jettySize=auto;html=1;entryX=1;entryY=0.5;entryDx=0;entryDy=0;" parent="1" source="yI7ebcBqDEaBk3-1Iv0P-1" target="T3WXX5QbxzU04eu_fvuh-21" edge="1">
          <mxGeometry relative="1" as="geometry" />
        </mxCell>
        <mxCell id="yI7ebcBqDEaBk3-1Iv0P-1" value="&lt;div&gt;offerCharacteristic - характеристики оффера&lt;br&gt;&lt;/div&gt;" style="rounded=1;whiteSpace=wrap;html=1;" parent="1" vertex="1">
          <mxGeometry x="450" y="710" width="146" height="60" as="geometry" />
        </mxCell>
        <mxCell id="yI7ebcBqDEaBk3-1Iv0P-5" value="1" style="text;html=1;align=center;verticalAlign=middle;resizable=0;points=[];autosize=1;strokeColor=none;fillColor=none;" parent="1" vertex="1">
          <mxGeometry x="376" y="848" width="30" height="30" as="geometry" />
        </mxCell>
        <mxCell id="yI7ebcBqDEaBk3-1Iv0P-6" value="1" style="text;html=1;align=center;verticalAlign=middle;resizable=0;points=[];autosize=1;strokeColor=none;fillColor=none;" parent="1" vertex="1">
          <mxGeometry x="606" y="468" width="30" height="30" as="geometry" />
        </mxCell>
        <mxCell id="yI7ebcBqDEaBk3-1Iv0P-8" value="1" style="text;html=1;align=center;verticalAlign=middle;resizable=0;points=[];autosize=1;strokeColor=none;fillColor=none;" parent="1" vertex="1">
          <mxGeometry x="46" y="760" width="30" height="30" as="geometry" />
        </mxCell>
        <mxCell id="yI7ebcBqDEaBk3-1Iv0P-9" value="N" style="text;html=1;align=center;verticalAlign=middle;resizable=0;points=[];autosize=1;strokeColor=none;fillColor=none;" parent="1" vertex="1">
          <mxGeometry x="116" y="848" width="30" height="30" as="geometry" />
        </mxCell>
        <mxCell id="9wjh-OF-F48EMqbNMAIN-5" style="edgeStyle=orthogonalEdgeStyle;rounded=0;orthogonalLoop=1;jettySize=auto;html=1;exitX=0.5;exitY=1;exitDx=0;exitDy=0;entryX=0.5;entryY=0;entryDx=0;entryDy=0;" edge="1" parent="1" source="9wjh-OF-F48EMqbNMAIN-1" target="9wjh-OF-F48EMqbNMAIN-2">
          <mxGeometry relative="1" as="geometry" />
        </mxCell>
        <mxCell id="9wjh-OF-F48EMqbNMAIN-38" style="edgeStyle=orthogonalEdgeStyle;rounded=0;orthogonalLoop=1;jettySize=auto;html=1;exitX=1;exitY=0.5;exitDx=0;exitDy=0;entryX=0;entryY=0.5;entryDx=0;entryDy=0;" edge="1" parent="1" source="9wjh-OF-F48EMqbNMAIN-1" target="9wjh-OF-F48EMqbNMAIN-37">
          <mxGeometry relative="1" as="geometry" />
        </mxCell>
        <mxCell id="9wjh-OF-F48EMqbNMAIN-1" value="offer" style="rounded=1;whiteSpace=wrap;html=1;" vertex="1" parent="1">
          <mxGeometry x="245" y="1000" width="120" height="60" as="geometry" />
        </mxCell>
        <mxCell id="9wjh-OF-F48EMqbNMAIN-6" style="edgeStyle=orthogonalEdgeStyle;rounded=0;orthogonalLoop=1;jettySize=auto;html=1;exitX=0.25;exitY=1;exitDx=0;exitDy=0;entryX=1;entryY=0;entryDx=0;entryDy=0;" edge="1" parent="1" source="9wjh-OF-F48EMqbNMAIN-2" target="9wjh-OF-F48EMqbNMAIN-3">
          <mxGeometry relative="1" as="geometry" />
        </mxCell>
        <mxCell id="9wjh-OF-F48EMqbNMAIN-7" style="edgeStyle=orthogonalEdgeStyle;rounded=0;orthogonalLoop=1;jettySize=auto;html=1;exitX=0.75;exitY=1;exitDx=0;exitDy=0;entryX=0;entryY=0;entryDx=0;entryDy=0;" edge="1" parent="1" source="9wjh-OF-F48EMqbNMAIN-2" target="9wjh-OF-F48EMqbNMAIN-4">
          <mxGeometry relative="1" as="geometry" />
        </mxCell>
        <mxCell id="9wjh-OF-F48EMqbNMAIN-36" style="edgeStyle=orthogonalEdgeStyle;rounded=0;orthogonalLoop=1;jettySize=auto;html=1;entryX=0;entryY=0.5;entryDx=0;entryDy=0;" edge="1" parent="1" source="9wjh-OF-F48EMqbNMAIN-2" target="9wjh-OF-F48EMqbNMAIN-27">
          <mxGeometry relative="1" as="geometry" />
        </mxCell>
        <mxCell id="9wjh-OF-F48EMqbNMAIN-2" value="&lt;div&gt;offer_characteristic&lt;/div&gt;&lt;div&gt;id&lt;br&gt;&lt;/div&gt;&lt;div&gt;offer_id&lt;/div&gt;&lt;div&gt;name&lt;br&gt;&lt;/div&gt;" style="rounded=1;whiteSpace=wrap;html=1;" vertex="1" parent="1">
          <mxGeometry x="245" y="1100" width="120" height="80" as="geometry" />
        </mxCell>
        <mxCell id="9wjh-OF-F48EMqbNMAIN-3" value="&lt;div&gt;offer_characteristic_link&lt;/div&gt;&lt;div&gt;id&lt;/div&gt;&lt;div&gt;characteristic_id&lt;/div&gt;&lt;div&gt;from_characteristic_id&lt;/div&gt;" style="rounded=1;whiteSpace=wrap;html=1;" vertex="1" parent="1">
          <mxGeometry x="140" y="1200" width="140" height="120" as="geometry" />
        </mxCell>
        <mxCell id="9wjh-OF-F48EMqbNMAIN-4" value="&lt;div&gt;offer_specification_characteristic_link&lt;div&gt;id&lt;/div&gt;&lt;div&gt;characteristic_id&lt;/div&gt;&lt;div&gt;specification_characteristic_id&lt;/div&gt;&lt;/div&gt;" style="rounded=1;whiteSpace=wrap;html=1;" vertex="1" parent="1">
          <mxGeometry x="345" y="1200" width="215" height="120" as="geometry" />
        </mxCell>
        <mxCell id="9wjh-OF-F48EMqbNMAIN-9" value="Предложение Артёма" style="text;html=1;strokeColor=none;fillColor=none;spacing=5;spacingTop=-20;whiteSpace=wrap;overflow=hidden;rounded=0;" vertex="1" parent="1">
          <mxGeometry x="30" y="960" width="190" height="120" as="geometry" />
        </mxCell>
        <mxCell id="9wjh-OF-F48EMqbNMAIN-30" style="edgeStyle=orthogonalEdgeStyle;rounded=0;orthogonalLoop=1;jettySize=auto;html=1;exitX=0;exitY=1;exitDx=0;exitDy=0;entryX=1;entryY=0;entryDx=0;entryDy=0;" edge="1" parent="1" source="9wjh-OF-F48EMqbNMAIN-27" target="9wjh-OF-F48EMqbNMAIN-28">
          <mxGeometry relative="1" as="geometry" />
        </mxCell>
        <mxCell id="9wjh-OF-F48EMqbNMAIN-31" style="edgeStyle=orthogonalEdgeStyle;rounded=0;orthogonalLoop=1;jettySize=auto;html=1;exitX=1;exitY=1;exitDx=0;exitDy=0;entryX=0.308;entryY=0.008;entryDx=0;entryDy=0;entryPerimeter=0;" edge="1" parent="1" source="9wjh-OF-F48EMqbNMAIN-27" target="9wjh-OF-F48EMqbNMAIN-29">
          <mxGeometry relative="1" as="geometry" />
        </mxCell>
        <mxCell id="9wjh-OF-F48EMqbNMAIN-27" value="&lt;div&gt;offer_value&lt;/div&gt;&lt;div&gt;id&lt;br&gt;&lt;/div&gt;&lt;div&gt;characteristic&lt;/div&gt;&lt;div&gt;data - not null&lt;br&gt;&lt;/div&gt;" style="rounded=1;whiteSpace=wrap;html=1;" vertex="1" parent="1">
          <mxGeometry x="788" y="1080" width="120" height="80" as="geometry" />
        </mxCell>
        <mxCell id="9wjh-OF-F48EMqbNMAIN-28" value="&lt;div&gt;from characteristic&lt;/div&gt;&lt;div&gt;id&lt;/div&gt;&lt;div&gt;characteristic_value_id&lt;/div&gt;&lt;div&gt;from_characteristic_id&lt;/div&gt;" style="rounded=1;whiteSpace=wrap;html=1;" vertex="1" parent="1">
          <mxGeometry x="670" y="1180" width="120" height="120" as="geometry" />
        </mxCell>
        <mxCell id="9wjh-OF-F48EMqbNMAIN-29" value="&lt;div&gt;from specification&lt;div&gt;id&lt;/div&gt;&lt;div&gt;characteristic_value_id&lt;/div&gt;&lt;div&gt;from_specification_id&lt;/div&gt;&lt;/div&gt;" style="rounded=1;whiteSpace=wrap;html=1;" vertex="1" parent="1">
          <mxGeometry x="875" y="1180" width="120" height="120" as="geometry" />
        </mxCell>
        <mxCell id="9wjh-OF-F48EMqbNMAIN-32" value="Text" style="text;html=1;strokeColor=none;fillColor=none;align=center;verticalAlign=middle;whiteSpace=wrap;rounded=0;" vertex="1" parent="1">
          <mxGeometry x="361" y="1410" width="60" height="30" as="geometry" />
        </mxCell>
        <mxCell id="9wjh-OF-F48EMqbNMAIN-37" value="offer_specification_link" style="rounded=0;whiteSpace=wrap;html=1;" vertex="1" parent="1">
          <mxGeometry x="490" y="1000" width="170" height="60" as="geometry" />
        </mxCell>
      </root>
    </mxGraphModel>
  </diagram>
</mxfile>
